<svg width="1280" height="520" viewBox="0 0 1280 520" fill="none" xmlns="http://www.w3.org/2000/svg">
  <rect width="1280" height="520" rx="32" fill="#07111F"/>
  <rect x="18" y="18" width="1244" height="484" rx="26" fill="url(#bg)"/>

  <circle cx="1048" cy="112" r="168" fill="#38BDF8" fill-opacity="0.16"/>
  <circle cx="1136" cy="386" r="146" fill="#34D399" fill-opacity="0.14"/>
  <circle cx="904" cy="354" r="114" fill="#F59E0B" fill-opacity="0.12"/>

  <rect x="72" y="70" width="232" height="40" rx="20" fill="#0F172A" stroke="#334155"/>
  <text x="102" y="96" fill="#7DD3FC" font-family="Arial, sans-serif" font-size="18" font-weight="700">Dreamina Web Image Gen</text>

  <text x="72" y="176" fill="#F8FAFC" font-family="Arial, sans-serif" font-size="56" font-weight="800">jimeng-cli-free</text>
  <text x="72" y="228" fill="#CBD5E1" font-family="Arial, sans-serif" font-size="28" font-weight="500">稳定驱动即梦网页端生图</text>
  <text x="72" y="266" fill="#CBD5E1" font-family="Arial, sans-serif" font-size="28" font-weight="500">支持参考图上传、模型比例控制与本地输出</text>

  <text x="72" y="330" fill="#94A3B8" font-family="Arial, sans-serif" font-size="22">无需高阶会员 · 建议最低会员 · 账号有积分即可理论上持续生成</text>

  <g>
    <rect x="72" y="376" width="184" height="54" rx="16" fill="#14B8A6"/>
    <text x="106" y="411" fill="#062B2B" font-family="Arial, sans-serif" font-size="24" font-weight="800">4 Images / Run</text>
  </g>
  <g>
    <rect x="272" y="376" width="180" height="54" rx="16" fill="#EAB308"/>
    <text x="320" y="411" fill="#422006" font-family="Arial, sans-serif" font-size="24" font-weight="800">PNG by Default</text>
  </g>
  <g>
    <rect x="468" y="376" width="172" height="54" rx="16" fill="#60A5FA"/>
    <text x="512" y="411" fill="#0B1D44" font-family="Arial, sans-serif" font-size="24" font-weight="800">2K Output</text>
  </g>

  <g>
    <rect x="772" y="86" width="414" height="328" rx="24" fill="#0B1220" stroke="#334155" stroke-width="2"/>
    <rect x="796" y="112" width="366" height="46" rx="14" fill="#111827"/>
    <text x="810" y="141" fill="#E2E8F0" font-family="Courier New, monospace" font-size="18">bash bin/jimeng-cli-free generate ...</text>

    <rect x="796" y="182" width="168" height="94" rx="16" fill="url(#card1)"/>
    <rect x="994" y="182" width="168" height="94" rx="16" fill="url(#card2)"/>
    <rect x="796" y="294" width="168" height="94" rx="16" fill="url(#card3)"/>
    <rect x="994" y="294" width="168" height="94" rx="16" fill="url(#card4)"/>

    <text x="814" y="240" fill="#F8FAFC" font-family="Arial, sans-serif" font-size="18" font-weight="700">Ref Image Ready</text>
    <text x="1020" y="240" fill="#F8FAFC" font-family="Arial, sans-serif" font-size="18" font-weight="700">16:9 Ratio</text>
    <text x="814" y="352" fill="#F8FAFC" font-family="Arial, sans-serif" font-size="18" font-weight="700">Model 5.0 Lite</text>
    <text x="1028" y="352" fill="#F8FAFC" font-family="Arial, sans-serif" font-size="18" font-weight="700">Local Output</text>
  </g>

  <defs>
    <linearGradient id="bg" x1="18" y1="18" x2="1262" y2="502" gradientUnits="userSpaceOnUse">
      <stop stop-color="#0B1220"/>
      <stop offset="0.48" stop-color="#111827"/>
      <stop offset="1" stop-color="#172554"/>
    </linearGradient>
    <linearGradient id="card1" x1="796" y1="182" x2="964" y2="276" gradientUnits="userSpaceOnUse">
      <stop stop-color="#0F766E"/>
      <stop offset="1" stop-color="#5EEAD4"/>
    </linearGradient>
    <linearGradient id="card2" x1="994" y1="182" x2="1162" y2="276" gradientUnits="userSpaceOnUse">
      <stop stop-color="#4C1D95"/>
      <stop offset="1" stop-color="#C4B5FD"/>
    </linearGradient>
    <linearGradient id="card3" x1="796" y1="294" x2="964" y2="388" gradientUnits="userSpaceOnUse">
      <stop stop-color="#B45309"/>
      <stop offset="1" stop-color="#FCD34D"/>
    </linearGradient>
    <linearGradient id="card4" x1="994" y1="294" x2="1162" y2="388" gradientUnits="userSpaceOnUse">
      <stop stop-color="#1D4ED8"/>
      <stop offset="1" stop-color="#93C5FD"/>
    </linearGradient>
  </defs>
</svg>
